<svg width="36" height="36" viewBox="0 0 36 36" fill="none" xmlns="http://www.w3.org/2000/svg">
<g clip-path="url(#clip0_38_2)">
<path d="M32.205 31.2435L27.8835 26.922C27.7479 26.7862 27.5707 26.7 27.3803 26.6771C27.1898 26.6543 26.9972 26.6961 26.8335 26.796C25.231 27.7635 23.3946 28.2748 21.5227 28.2748C19.6508 28.2748 17.8144 27.7635 16.212 26.796C16.0477 26.6977 15.8555 26.6567 15.6654 26.6795C15.4754 26.7023 15.2983 26.7876 15.162 26.922L10.8405 31.2435C10.705 31.3753 10.6166 31.548 10.5887 31.7349C10.5608 31.9218 10.595 32.1128 10.686 32.2785C10.7485 32.3879 10.8333 32.4829 10.935 32.5575C14.0111 34.7939 17.7165 35.9985 21.5197 35.9985C25.3229 35.9985 29.0283 34.7939 32.1045 32.5575C32.2065 32.4839 32.2915 32.3891 32.3533 32.2795C32.4152 32.17 32.4526 32.0483 32.463 31.923C32.4715 31.7978 32.4529 31.6723 32.4083 31.555C32.3638 31.4377 32.2944 31.3314 32.205 31.2435ZM32.208 4.74145L27.888 9.06145C27.7523 9.19754 27.5748 9.28399 27.3841 9.30685C27.1933 9.32971 27.0004 9.28765 26.8365 9.18745C24.6003 7.83976 21.9354 7.39289 19.3819 7.93745C16.8285 8.48201 14.5777 9.97724 13.086 12.12C11.9535 13.7505 11.317 15.6738 11.253 17.658C11.1871 19.6421 11.6966 21.6029 12.72 23.304C12.8196 23.4674 12.8615 23.6596 12.8389 23.8497C12.8163 24.0398 12.7306 24.2169 12.5955 24.3525L8.27396 28.6725C8.18746 28.7609 8.0827 28.8294 7.96699 28.8732C7.85128 28.917 7.72741 28.9351 7.60402 28.9261C7.48062 28.9171 7.36068 28.8813 7.25255 28.8211C7.14442 28.761 7.05071 28.678 6.97796 28.578C4.27119 24.8584 3.09222 20.2431 3.68341 15.6811C4.27459 11.119 6.591 6.95675 10.1565 4.04995C13.2349 1.53754 17.0587 0.115324 21.0307 0.00541973C25.0027 -0.104484 28.8993 1.10411 32.112 3.44245C32.2119 3.51553 32.2948 3.60945 32.3549 3.7177C32.415 3.82596 32.4508 3.94598 32.46 4.06945C32.4692 4.19303 32.4514 4.31714 32.4079 4.43317C32.3644 4.54921 32.2962 4.65439 32.208 4.74145ZM21.531 23.133C22.8943 23.133 24.2018 22.5914 25.1658 21.6273C26.1299 20.6633 26.6715 19.3558 26.6715 17.9925C26.6715 16.6291 26.1299 15.3216 25.1658 14.3576C24.2018 13.3935 22.8943 12.852 21.531 12.852C20.1676 12.852 18.8601 13.3935 17.8961 14.3576C16.932 15.3216 16.3905 16.6291 16.3905 17.9925C16.3905 19.3558 16.932 20.6633 17.8961 21.6273C18.8601 22.5914 20.1676 23.133 21.531 23.133Z" fill="black"/>
</g>
<defs>
<clipPath id="clip0_38_2">
<rect width="36" height="36" fill="white"/>
</clipPath>
</defs>
</svg>
