<svg width="36" height="36" viewBox="0 0 36 36" fill="none" xmlns="http://www.w3.org/2000/svg">
<g clip-path="url(#clip0_35_11)">
<path d="M27.5625 0H8.4375C3.7776 0 0 3.7776 0 8.4375V27.5625C0 32.2224 3.7776 36 8.4375 36H27.5625C32.2224 36 36 32.2224 36 27.5625V8.4375C36 3.7776 32.2224 0 27.5625 0Z" fill="#023430"/>
<path d="M24.0712 15.13C22.5894 8.59359 19.5013 6.8535 18.7135 5.62345C18.3885 5.08166 18.1007 4.51838 17.8522 3.9375C17.8106 4.51828 17.7341 4.88391 17.2405 5.32434C16.2495 6.20789 12.0406 9.63773 11.6863 17.0646C11.3563 23.9892 16.777 28.259 17.493 28.7004C18.0437 28.9714 18.7144 28.7062 19.0416 28.4574C21.6545 26.6642 25.2247 21.8832 24.074 15.13" fill="#10AA50"/>
<path d="M18.0767 25.0132C17.9403 26.7271 17.8426 27.723 17.4961 28.7025C17.4961 28.7025 17.7235 30.3342 17.8832 32.0626H18.4484C18.5834 30.8454 18.7892 29.6372 19.0649 28.444C18.3332 28.084 18.1049 26.5172 18.0767 25.0132Z" fill="#B8C4C2"/>
<path d="M19.0639 28.4448C18.3245 28.1032 18.1106 26.5033 18.0777 25.013C18.2605 22.5544 18.3138 20.088 18.2375 17.6238C18.1986 16.3309 18.2557 5.6485 17.9189 4.08447C18.1492 4.61426 18.4147 5.12804 18.7136 5.62235C19.5014 6.85338 22.5905 8.59347 24.0713 15.1299C25.2248 21.8716 21.6741 26.6399 19.0639 28.4448Z" fill="#12924F"/>
</g>
<defs>
<clipPath id="clip0_35_11">
<rect width="36" height="36" fill="white"/>
</clipPath>
</defs>
</svg>
