<svg width="55" height="36" viewBox="0 0 55 36" fill="none" xmlns="http://www.w3.org/2000/svg">
<g clip-path="url(#clip0_39_6)">
<path d="M30.7768 35.7919H51.1695C51.8173 35.7919 52.4535 35.6267 53.0145 35.3126C53.5718 35.0019 54.0376 34.55 54.3649 34.0022C54.6879 33.4611 54.8585 32.8427 54.8586 32.2125C54.8586 31.5842 54.6874 30.9673 54.3632 30.4232L40.6682 7.41429C40.3408 6.86677 39.8751 6.41501 39.318 6.10436C38.7543 5.78922 38.1192 5.62409 37.4734 5.62479C36.8256 5.62479 36.1896 5.79022 35.6286 6.10436C35.0714 6.41496 34.6059 6.86673 34.2786 7.41429L30.7768 13.3014L23.9303 1.78907C23.6025 1.24174 23.1367 0.790105 22.5795 0.479358C22.0155 0.164577 21.3803 -0.000456033 20.7345 9.46455e-07C20.0869 9.46455e-07 19.4505 0.16543 18.8895 0.479358C18.3323 0.790135 17.8666 1.24177 17.5388 1.78907L0.496465 30.4232C0.173079 30.9641 0.0020375 31.5823 0.00146484 32.2125C0.00146484 32.8408 0.171393 33.4581 0.495179 34.0022C0.822481 34.55 1.28824 35.0019 1.84561 35.3126C2.40941 35.6277 3.04471 35.7928 3.69061 35.7919H16.4914C21.5633 35.7919 25.3035 33.6311 27.8773 29.4152L34.1256 18.9189L37.4723 13.3014L47.5168 30.1746H34.1256L30.7768 35.7919ZM16.2825 30.1691L7.34932 30.1669L20.7405 7.67057L27.4221 18.9189L22.9485 26.4369C21.2393 29.1722 19.2977 30.1689 16.2827 30.1689" fill="#00DC82"/>
</g>
<defs>
<clipPath id="clip0_39_6">
<rect width="54.86" height="36" fill="white"/>
</clipPath>
</defs>
</svg>
