<svg width="36" height="36" viewBox="0 0 36 36" fill="none" xmlns="http://www.w3.org/2000/svg">
<g clip-path="url(#clip0_35_21)">
<path d="M27.5625 0H8.4375C3.7776 0 0 3.7776 0 8.4375V27.5625C0 32.2224 3.7776 36 8.4375 36H27.5625C32.2224 36 36 32.2224 36 27.5625V8.4375C36 3.7776 32.2224 0 27.5625 0Z" fill="#677EEB"/>
<path fill-rule="evenodd" clip-rule="evenodd" d="M7.40491 23.2289C7.27285 23.0204 7.20185 22.7791 7.19999 22.5323C7.19812 22.2855 7.26546 22.0431 7.39437 21.8326L17.3031 5.67003C17.8542 4.77102 19.1849 4.84962 19.6263 5.80714L28.6782 25.4427C29.0141 26.1713 28.6275 27.0286 27.859 27.2592L13.7782 31.4834C13.5025 31.5661 13.2073 31.5564 12.9376 31.4558C12.6679 31.3552 12.4386 31.1691 12.2845 30.926L7.40491 23.2289ZM18.4461 10.3959C18.5416 9.92028 19.1931 9.85166 19.3855 10.297L25.6293 24.7448C25.6571 24.809 25.6709 24.8783 25.67 24.9482C25.669 25.0181 25.6532 25.087 25.6236 25.1503C25.5941 25.2137 25.5514 25.2701 25.4985 25.3157C25.4456 25.3614 25.3836 25.3954 25.3166 25.4153L15.5879 28.3195C15.2303 28.4262 14.8877 28.1138 14.9613 27.7479L18.4461 10.3959Z" fill="#F7FAFC"/>
</g>
<defs>
<clipPath id="clip0_35_21">
<rect width="36" height="36" fill="white"/>
</clipPath>
</defs>
</svg>
